<mxfile host="drawio-plugin" modified="2023-01-07T17:21:39.231Z" agent="5.0 (Windows NT 6.2; Win64; x64) AppleWebKit/537.36 (KHTML, like Gecko) Chrome/97.0.4692.45 Safari/537.36" etag="4UZHZo7F0xQZ7XI3iAsj" version="20.5.3" type="embed"><diagram id="FxRgBjxoGfl5eXT2ue3j" name="Page-1"><mxGraphModel dx="2357" dy="1255" grid="1" gridSize="10" guides="1" tooltips="1" connect="1" arrows="1" fold="1" page="0" pageScale="1" pageWidth="850" pageHeight="1100" background="none" math="0" shadow="1"><root><mxCell id="0"/><mxCell id="1" parent="0"/><mxCell id="node5" value="&lt;p style=&quot;margin: 4px 0px 0px; text-align: center; font-size: 12px;&quot;&gt;&lt;b style=&quot;font-size: 12px;&quot;&gt;&lt;i style=&quot;font-size: 12px;&quot;&gt;Car&lt;/i&gt;&lt;/b&gt;&lt;/p&gt;&lt;hr style=&quot;font-size: 12px;&quot;&gt;&lt;p style=&quot;margin: 0px 0px 0px 4px; line-height: 1.6; font-size: 12px;&quot;&gt;+ Car(): &lt;/p&gt;&lt;hr style=&quot;font-size: 12px;&quot;&gt;&lt;p style=&quot;margin: 0px 0px 0px 4px; line-height: 1.6; font-size: 12px;&quot;&gt;- make: String&lt;br style=&quot;font-size: 12px;&quot;&gt;- fuelType: TypeFuel&lt;br style=&quot;font-size: 12px;&quot;&gt;- numberWheels: int&lt;br style=&quot;font-size: 12px;&quot;&gt;- engineCapacity: double&lt;br style=&quot;font-size: 12px;&quot;&gt;- color: Color&lt;br style=&quot;font-size: 12px;&quot;&gt;- bodyType: TypeCar&lt;br style=&quot;font-size: 12px;&quot;&gt;- model: String&lt;br style=&quot;font-size: 12px;&quot;&gt;- gearboxType: TypeGearBox&lt;/p&gt;&lt;hr style=&quot;font-size: 12px;&quot;&gt;&lt;p style=&quot;margin: 0px 0px 0px 4px; line-height: 1.6; font-size: 12px;&quot;&gt;+ switchHeadLights(): boolean&lt;br style=&quot;font-size: 12px;&quot;&gt;+ switchWipers(): boolean&lt;br style=&quot;font-size: 12px;&quot;&gt;+ gearShifting(): boolean&lt;br style=&quot;font-size: 12px;&quot;&gt;+ movement(): void&lt;br style=&quot;font-size: 12px;&quot;&gt;+ maintenance(): void&lt;/p&gt;&lt;hr style=&quot;font-size: 12px;&quot;&gt;&lt;p style=&quot;margin: 0px 0px 0px 4px; line-height: 1.6; font-size: 12px;&quot;&gt; color: Color&lt;br style=&quot;font-size: 12px;&quot;&gt; gearboxType: TypeGearBox&lt;br style=&quot;font-size: 12px;&quot;&gt; engineCapacity: double&lt;br style=&quot;font-size: 12px;&quot;&gt; bodyType: TypeCar&lt;br style=&quot;font-size: 12px;&quot;&gt; fuelType: TypeFuel&lt;br style=&quot;font-size: 12px;&quot;&gt; make: String&lt;br style=&quot;font-size: 12px;&quot;&gt; model: String&lt;br style=&quot;font-size: 12px;&quot;&gt; numberWheels: int&lt;/p&gt;" style="verticalAlign=top;align=left;overflow=fill;fontSize=12;fontFamily=Helvetica;html=1;rounded=0;shadow=0;comic=0;labelBackgroundColor=none;strokeWidth=1;" parent="1" vertex="1"><mxGeometry x="-735" y="-226" width="199" height="519" as="geometry"/></mxCell><mxCell id="node11" value="&lt;p style=&quot;margin: 4px 0px 0px; text-align: center; font-size: 12px;&quot;&gt;&lt;b style=&quot;font-size: 12px;&quot;&gt;FutureCar&lt;/b&gt;&lt;/p&gt;&lt;hr style=&quot;font-size: 12px;&quot;&gt;&lt;p style=&quot;margin: 0px 0px 0px 4px; line-height: 1.6; font-size: 12px;&quot;&gt;+ FutureCar(): &lt;/p&gt;&lt;hr style=&quot;font-size: 12px;&quot;&gt;&lt;p style=&quot;margin: 0px 0px 0px 4px; line-height: 1.6; font-size: 12px;&quot;&gt;- fly(): void&lt;/p&gt;" style="verticalAlign=top;align=left;overflow=fill;fontSize=12;fontFamily=Helvetica;html=1;rounded=0;shadow=0;comic=0;labelBackgroundColor=none;strokeWidth=1;" parent="1" vertex="1"><mxGeometry x="-415" y="38" width="113" height="83" as="geometry"/></mxCell><mxCell id="node2" value="&lt;p style=&quot;margin: 4px 0px 0px; text-align: center; font-size: 12px;&quot;&gt;&lt;b style=&quot;font-size: 12px;&quot;&gt;Main&lt;/b&gt;&lt;/p&gt;&lt;hr style=&quot;font-size: 12px;&quot;&gt;&lt;p style=&quot;margin: 0px 0px 0px 4px; line-height: 1.6; font-size: 12px;&quot;&gt;+ Main(): &lt;/p&gt;&lt;hr style=&quot;font-size: 12px;&quot;&gt;&lt;p style=&quot;margin: 0px 0px 0px 4px; line-height: 1.6; font-size: 12px;&quot;&gt;+ main(String[]): void&lt;/p&gt;" style="verticalAlign=top;align=left;overflow=fill;fontSize=12;fontFamily=Helvetica;html=1;rounded=0;shadow=0;comic=0;labelBackgroundColor=none;strokeWidth=1;" parent="1" vertex="1"><mxGeometry x="-415" y="-226" width="153" height="83" as="geometry"/></mxCell><mxCell id="node4" value="&lt;p style=&quot;margin: 4px 0px 0px; text-align: center; font-size: 12px;&quot;&gt;&lt;b style=&quot;font-size: 12px;&quot;&gt;PickUp&lt;/b&gt;&lt;/p&gt;&lt;hr style=&quot;font-size: 12px;&quot;&gt;&lt;p style=&quot;margin: 0px 0px 0px 4px; line-height: 1.6; font-size: 12px;&quot;&gt;+ PickUp(): &lt;/p&gt;&lt;hr style=&quot;font-size: 12px;&quot;&gt;&lt;p style=&quot;margin: 0px 0px 0px 4px; line-height: 1.6; font-size: 12px;&quot;&gt;- loadCapacity: int&lt;/p&gt;&lt;hr style=&quot;font-size: 12px;&quot;&gt;&lt;p style=&quot;margin: 0px 0px 0px 4px; line-height: 1.6; font-size: 12px;&quot;&gt;+ wipWindshield(): void&lt;br style=&quot;font-size: 12px;&quot;&gt;+ wipHeadlights(): void&lt;br style=&quot;font-size: 12px;&quot;&gt;+ wipMirrors(): void&lt;br style=&quot;font-size: 12px;&quot;&gt;+ fuel(TypeFuel): void&lt;/p&gt;&lt;hr style=&quot;font-size: 12px;&quot;&gt;&lt;p style=&quot;margin: 0px 0px 0px 4px; line-height: 1.6; font-size: 12px;&quot;&gt; loadCapacity: int&lt;/p&gt;" style="verticalAlign=top;align=left;overflow=fill;fontSize=12;fontFamily=Helvetica;html=1;rounded=0;shadow=0;comic=0;labelBackgroundColor=none;strokeWidth=1;" parent="1" vertex="1"><mxGeometry x="-418" y="177" width="164" height="183" as="geometry"/></mxCell><mxCell id="node8" value="&lt;p style=&quot;margin: 4px 0px 0px; text-align: center; font-size: 12px;&quot;&gt;&lt;b style=&quot;font-size: 12px;&quot;&gt;SweepCar&lt;/b&gt;&lt;/p&gt;&lt;hr style=&quot;font-size: 12px;&quot;&gt;&lt;p style=&quot;margin: 0px 0px 0px 4px; line-height: 1.6; font-size: 12px;&quot;&gt;+ SweepCar(): &lt;/p&gt;&lt;hr style=&quot;font-size: 12px;&quot;&gt;&lt;p style=&quot;margin: 0px 0px 0px 4px; line-height: 1.6; font-size: 12px;&quot;&gt;+ sweeping(): void&lt;/p&gt;" style="verticalAlign=top;align=left;overflow=fill;fontSize=12;fontFamily=Helvetica;html=1;rounded=0;shadow=0;comic=0;labelBackgroundColor=none;strokeWidth=1;" parent="1" vertex="1"><mxGeometry x="-415" y="-101" width="136" height="83" as="geometry"/></mxCell><mxCell id="node0" value="&lt;p style=&quot;margin: 4px 0px 0px; text-align: center; font-size: 12px;&quot;&gt;&lt;i style=&quot;font-size: 12px;&quot;&gt;&amp;lt;&amp;lt;enumeration&amp;gt;&amp;gt;&lt;/i&gt;&lt;br style=&quot;font-size: 12px;&quot;&gt;&lt;b style=&quot;font-size: 12px;&quot;&gt;TypeCar&lt;/b&gt;&lt;/p&gt;&lt;hr style=&quot;font-size: 12px;&quot;&gt;&lt;p style=&quot;margin: 0px 0px 0px 4px; line-height: 1.6; font-size: 12px;&quot;&gt;+ TypeCar(): &lt;/p&gt;&lt;hr style=&quot;font-size: 12px;&quot;&gt;&lt;p style=&quot;margin: 0px 0px 0px 4px; line-height: 1.6; font-size: 12px;&quot;&gt;+ values(): TypeCar[]&lt;br style=&quot;font-size: 12px;&quot;&gt;+ valueOf(String): TypeCar&lt;/p&gt;" style="verticalAlign=top;align=left;overflow=fill;fontSize=12;fontFamily=Helvetica;html=1;rounded=0;shadow=0;comic=0;labelBackgroundColor=none;strokeWidth=1;" parent="1" vertex="1"><mxGeometry x="-1044" y="-226" width="175" height="124" as="geometry"/></mxCell><mxCell id="node7" value="&lt;p style=&quot;margin: 4px 0px 0px; text-align: center; font-size: 12px;&quot;&gt;&lt;i style=&quot;font-size: 12px;&quot;&gt;&amp;lt;&amp;lt;enumeration&amp;gt;&amp;gt;&lt;/i&gt;&lt;br style=&quot;font-size: 12px;&quot;&gt;&lt;b style=&quot;font-size: 12px;&quot;&gt;TypeFuel&lt;/b&gt;&lt;/p&gt;&lt;hr style=&quot;font-size: 12px;&quot;&gt;&lt;p style=&quot;margin: 0px 0px 0px 4px; line-height: 1.6; font-size: 12px;&quot;&gt;+ TypeFuel(): &lt;/p&gt;&lt;hr style=&quot;font-size: 12px;&quot;&gt;&lt;p style=&quot;margin: 0px 0px 0px 4px; line-height: 1.6; font-size: 12px;&quot;&gt;+ values(): TypeFuel[]&lt;br style=&quot;font-size: 12px;&quot;&gt;+ valueOf(String): TypeFuel&lt;/p&gt;" style="verticalAlign=top;align=left;overflow=fill;fontSize=12;fontFamily=Helvetica;html=1;rounded=0;shadow=0;comic=0;labelBackgroundColor=none;strokeWidth=1;" parent="1" vertex="1"><mxGeometry x="-1044" y="156" width="179" height="124" as="geometry"/></mxCell><mxCell id="node9" value="&lt;p style=&quot;margin: 4px 0px 0px; text-align: center; font-size: 12px;&quot;&gt;&lt;i style=&quot;font-size: 12px;&quot;&gt;&amp;lt;&amp;lt;enumeration&amp;gt;&amp;gt;&lt;/i&gt;&lt;br style=&quot;font-size: 12px;&quot;&gt;&lt;b style=&quot;font-size: 12px;&quot;&gt;TypeGearBox&lt;/b&gt;&lt;/p&gt;&lt;hr style=&quot;font-size: 12px;&quot;&gt;&lt;p style=&quot;margin: 0px 0px 0px 4px; line-height: 1.6; font-size: 12px;&quot;&gt;+ TypeGearBox(): &lt;/p&gt;&lt;hr style=&quot;font-size: 12px;&quot;&gt;&lt;p style=&quot;margin: 0px 0px 0px 4px; line-height: 1.6; font-size: 12px;&quot;&gt;+ values(): TypeGearBox[]&lt;br style=&quot;font-size: 12px;&quot;&gt;+ valueOf(String): TypeGearBox&lt;/p&gt;" style="verticalAlign=top;align=left;overflow=fill;fontSize=12;fontFamily=Helvetica;html=1;rounded=0;shadow=0;comic=0;labelBackgroundColor=none;strokeWidth=1;" parent="1" vertex="1"><mxGeometry x="-1044" y="-35" width="202" height="135" as="geometry"/></mxCell><mxCell id="node6" value="&lt;p style=&quot;margin: 4px 0px 0px; text-align: center; font-size: 12px;&quot;&gt;&lt;b style=&quot;font-size: 12px;&quot;&gt;dieselCar&lt;/b&gt;&lt;/p&gt;&lt;hr style=&quot;font-size: 12px;&quot;&gt;&lt;p style=&quot;margin: 0px 0px 0px 4px; line-height: 1.6; font-size: 12px;&quot;&gt;~ dieselCar(): &lt;/p&gt;&lt;hr style=&quot;font-size: 12px;&quot;&gt;&lt;p style=&quot;margin: 0px 0px 0px 4px; line-height: 1.6; font-size: 12px;&quot;&gt;+ fuel(TypeFuel): void&lt;/p&gt;" style="verticalAlign=top;align=left;overflow=fill;fontSize=12;fontFamily=Helvetica;html=1;rounded=0;shadow=0;comic=0;labelBackgroundColor=none;strokeWidth=1;" parent="1" vertex="1"><mxGeometry x="-1052" y="369" width="153" height="83" as="geometry"/></mxCell><mxCell id="node10" value="&lt;p style=&quot;margin: 4px 0px 0px; text-align: center; font-size: 12px;&quot;&gt;&lt;b style=&quot;font-size: 12px;&quot;&gt;gasolineCar&lt;/b&gt;&lt;/p&gt;&lt;hr style=&quot;font-size: 12px;&quot;&gt;&lt;p style=&quot;margin: 0px 0px 0px 4px; line-height: 1.6; font-size: 12px;&quot;&gt;~ gasolineCar(): &lt;/p&gt;&lt;hr style=&quot;font-size: 12px;&quot;&gt;&lt;p style=&quot;margin: 0px 0px 0px 4px; line-height: 1.6; font-size: 12px;&quot;&gt;+ fuel(TypeFuel): void&lt;/p&gt;" style="verticalAlign=top;align=left;overflow=fill;fontSize=12;fontFamily=Helvetica;html=1;rounded=0;shadow=0;comic=0;labelBackgroundColor=none;strokeWidth=1;" parent="1" vertex="1"><mxGeometry x="-822" y="376" width="153" height="83" as="geometry"/></mxCell><mxCell id="node1" value="&lt;p style=&quot;margin: 4px 0px 0px; text-align: center; font-size: 12px;&quot;&gt;&lt;i style=&quot;font-size: 12px;&quot;&gt;&amp;lt;&amp;lt;interface&amp;gt;&amp;gt;&lt;/i&gt;&lt;br style=&quot;font-size: 12px;&quot;&gt;&lt;b style=&quot;font-size: 12px;&quot;&gt;iRefueling&lt;/b&gt;&lt;/p&gt;&lt;hr style=&quot;font-size: 12px;&quot;&gt;&lt;p style=&quot;margin: 0px 0px 0px 4px; line-height: 1.6; font-size: 12px;&quot;&gt;+ fuel(TypeFuel): void&lt;/p&gt;" style="verticalAlign=top;align=left;overflow=fill;fontSize=12;fontFamily=Helvetica;html=1;rounded=0;shadow=0;comic=0;labelBackgroundColor=none;strokeWidth=1;" parent="1" vertex="1"><mxGeometry x="-952" y="529" width="153" height="68" as="geometry"/></mxCell><mxCell id="node3" value="&lt;p style=&quot;margin: 4px 0px 0px; text-align: center; font-size: 12px;&quot;&gt;&lt;i style=&quot;font-size: 12px;&quot;&gt;&amp;lt;&amp;lt;interface&amp;gt;&amp;gt;&lt;/i&gt;&lt;br style=&quot;font-size: 12px;&quot;&gt;&lt;b style=&quot;font-size: 12px;&quot;&gt;iWipe&lt;/b&gt;&lt;/p&gt;&lt;hr style=&quot;font-size: 12px;&quot;&gt;&lt;p style=&quot;margin: 0px 0px 0px 4px; line-height: 1.6; font-size: 12px;&quot;&gt;+ wipHeadlights(): void&lt;br style=&quot;font-size: 12px;&quot;&gt;+ wipMirrors(): void&lt;br style=&quot;font-size: 12px;&quot;&gt;+ wipWindshield(): void&lt;/p&gt;" style="verticalAlign=top;align=left;overflow=fill;fontSize=12;fontFamily=Helvetica;html=1;rounded=0;shadow=0;comic=0;labelBackgroundColor=none;strokeWidth=1;" parent="1" vertex="1"><mxGeometry x="-418" y="485" width="164" height="123" as="geometry"/></mxCell><mxCell id="edge3" value="" style="html=1;rounded=0;edgeStyle=orthogonalEdgeStyle;dashed=0;startArrow=diamondThin;endArrow=open;endSize=12;strokeColor=default;exitX=0.006;exitY=0.118;exitDx=0;exitDy=0;entryX=1.000;entryY=0.500;entryDx=0;entryDy=0;fontSize=12;exitPerimeter=0;startFill=0;align=left;verticalAlign=bottom;startSize=14;" parent="1" source="node5" target="node0" edge="1"><mxGeometry width="50" height="50" relative="1" as="geometry"><Array as="points"/></mxGeometry></mxCell><mxCell id="label18" value="1" style="edgeLabel;resizable=0;html=1;align=left;verticalAlign=top;strokeColor=default;fontSize=12;" parent="edge3" vertex="1" connectable="0"><mxGeometry x="-860" y="-160" as="geometry"/></mxCell><mxCell id="label22" value="1" style="edgeLabel;resizable=0;html=1;align=left;verticalAlign=top;strokeColor=default;fontSize=12;" parent="edge3" vertex="1" connectable="0"><mxGeometry x="-793" y="-200" as="geometry"><mxPoint x="32" y="38" as="offset"/></mxGeometry></mxCell><mxCell id="label23" value="bodyType" style="edgeLabel;resizable=0;html=1;align=left;verticalAlign=top;strokeColor=default;fontSize=12;" parent="edge3" vertex="1" connectable="0"><mxGeometry x="-864" y="-195" as="geometry"/></mxCell><mxCell id="edge7" value="" style="html=1;rounded=0;edgeStyle=orthogonalEdgeStyle;dashed=0;startArrow=diamondThin;endArrow=open;endSize=12;strokeColor=default;exitX=0.002;exitY=0.855;exitDx=0;exitDy=0;entryX=1.000;entryY=0.500;entryDx=0;entryDy=0;fontSize=12;exitPerimeter=0;align=left;verticalAlign=bottom;startSize=14;startFill=0;" parent="1" source="node5" target="node7" edge="1"><mxGeometry width="50" height="50" relative="1" as="geometry"><Array as="points"/></mxGeometry></mxCell><mxCell id="label42" value="1" style="edgeLabel;resizable=0;html=1;align=left;verticalAlign=top;strokeColor=default;fontSize=12;" parent="edge7" vertex="1" connectable="0"><mxGeometry x="-860" y="191" as="geometry"/></mxCell><mxCell id="label46" value="1" style="edgeLabel;resizable=0;html=1;align=left;verticalAlign=top;strokeColor=default;fontSize=12;" parent="edge7" vertex="1" connectable="0"><mxGeometry x="-783" y="206" as="geometry"/></mxCell><mxCell id="label47" value="fuelType" style="edgeLabel;resizable=0;html=1;align=left;verticalAlign=top;strokeColor=default;fontSize=12;" parent="edge7" vertex="1" connectable="0"><mxGeometry x="-860" y="221" as="geometry"/></mxCell><mxCell id="edge14" value="" style="html=1;rounded=0;edgeStyle=orthogonalEdgeStyle;dashed=0;startArrow=diamondThin;endArrow=open;endSize=12;strokeColor=default;fontSize=12;align=left;verticalAlign=bottom;startSize=14;startFill=0;exitX=0;exitY=0.5;exitDx=0;exitDy=0;" parent="1" source="node5" edge="1"><mxGeometry width="50" height="50" relative="1" as="geometry"><mxPoint x="-730" y="33" as="sourcePoint"/><mxPoint x="-840" y="33" as="targetPoint"/></mxGeometry></mxCell><mxCell id="label84" value="1" style="edgeLabel;resizable=0;html=1;align=left;verticalAlign=top;strokeColor=default;fontSize=12;" parent="edge14" vertex="1" connectable="0"><mxGeometry x="-837" as="geometry"/></mxCell><mxCell id="label88" value="1" style="edgeLabel;resizable=0;html=1;align=left;verticalAlign=top;strokeColor=default;fontSize=12;" parent="edge14" vertex="1" connectable="0"><mxGeometry x="-757" y="55" as="geometry"/></mxCell><mxCell id="label89" value="gearboxType" style="edgeLabel;resizable=0;html=1;align=left;verticalAlign=top;strokeColor=default;fontSize=12;" parent="edge14" vertex="1" connectable="0"><mxGeometry x="-837" y="42" as="geometry"/></mxCell><mxCell id="edge10" value="" style="html=1;rounded=1;edgeStyle=orthogonalEdgeStyle;dashed=0;startArrow=none;endArrow=block;endSize=12;strokeColor=#000082;exitX=0.000;exitY=0.500;exitDx=0;exitDy=0;entryX=0.500;entryY=1.000;entryDx=0;entryDy=0;fontSize=12;" parent="1" source="node11" target="node5" edge="1"><mxGeometry width="50" height="50" relative="1" as="geometry"><Array as="points"><mxPoint x="-476" y="77"/><mxPoint x="-476" y="331"/><mxPoint x="-635" y="331"/></Array></mxGeometry></mxCell><mxCell id="edge6" value="" style="html=1;rounded=1;edgeStyle=orthogonalEdgeStyle;dashed=0;startArrow=none;endArrow=block;endSize=12;strokeColor=#000082;exitX=0.000;exitY=0.500;exitDx=0;exitDy=0;entryX=0.500;entryY=1.000;entryDx=0;entryDy=0;fontSize=12;" parent="1" source="node4" target="node5" edge="1"><mxGeometry width="50" height="50" relative="1" as="geometry"><Array as="points"><mxPoint x="-476" y="272"/><mxPoint x="-476" y="331"/><mxPoint x="-635" y="331"/></Array></mxGeometry></mxCell><mxCell id="edge5" value="" style="html=1;rounded=1;edgeStyle=orthogonalEdgeStyle;dashed=1;startArrow=none;endArrow=block;endSize=12;strokeColor=#008200;exitX=0.000;exitY=0.815;exitDx=0;exitDy=0;entryX=0.598;entryY=0.001;entryDx=0;entryDy=0;fontSize=12;" parent="1" source="node4" target="node1" edge="1"><mxGeometry width="50" height="50" relative="1" as="geometry"><Array as="points"><mxPoint x="-461" y="331"/><mxPoint x="-461" y="491"/><mxPoint x="-860" y="491"/></Array></mxGeometry></mxCell><mxCell id="edge9" value="" style="html=1;rounded=1;edgeStyle=orthogonalEdgeStyle;dashed=1;startArrow=none;endArrow=block;endSize=12;strokeColor=#008200;exitX=0.500;exitY=1.000;exitDx=0;exitDy=0;entryX=0.500;entryY=0.000;entryDx=0;entryDy=0;fontSize=12;" parent="1" source="node4" target="node3" edge="1"><mxGeometry width="50" height="50" relative="1" as="geometry"><Array as="points"/></mxGeometry></mxCell><mxCell id="edge12" value="" style="html=1;rounded=1;edgeStyle=orthogonalEdgeStyle;dashed=0;startArrow=none;endArrow=block;endSize=12;strokeColor=#000082;exitX=0.000;exitY=0.500;exitDx=0;exitDy=0;entryX=0.500;entryY=1.000;entryDx=0;entryDy=0;fontSize=12;" parent="1" source="node8" target="node5" edge="1"><mxGeometry width="50" height="50" relative="1" as="geometry"><Array as="points"><mxPoint x="-476" y="-62"/><mxPoint x="-476" y="331"/><mxPoint x="-635" y="331"/></Array></mxGeometry></mxCell><mxCell id="edge2" value="" style="html=1;rounded=1;edgeStyle=orthogonalEdgeStyle;dashed=0;startArrow=none;endArrow=block;endSize=12;strokeColor=#000082;exitX=0.500;exitY=0.000;exitDx=0;exitDy=0;entryX=0.500;entryY=1.000;entryDx=0;entryDy=0;fontSize=12;" parent="1" source="node6" target="node5" edge="1"><mxGeometry width="50" height="50" relative="1" as="geometry"><Array as="points"><mxPoint x="-975" y="331"/><mxPoint x="-635" y="331"/></Array></mxGeometry></mxCell><mxCell id="edge13" value="" style="html=1;rounded=1;edgeStyle=orthogonalEdgeStyle;dashed=1;startArrow=none;endArrow=openThin;endSize=12;strokeColor=#595959;exitX=0.402;exitY=0.000;exitDx=0;exitDy=0;entryX=0.500;entryY=1.000;entryDx=0;entryDy=0;fontSize=12;" parent="1" source="node6" target="node7" edge="1"><mxGeometry width="50" height="50" relative="1" as="geometry"><Array as="points"><mxPoint x="-990" y="350"/><mxPoint x="-954" y="350"/></Array></mxGeometry></mxCell><mxCell id="edge0" value="" style="html=1;rounded=1;edgeStyle=orthogonalEdgeStyle;dashed=1;startArrow=none;endArrow=block;endSize=12;strokeColor=#008200;exitX=0.500;exitY=1.001;exitDx=0;exitDy=0;entryX=0.598;entryY=0.001;entryDx=0;entryDy=0;fontSize=12;" parent="1" source="node6" target="node1" edge="1"><mxGeometry width="50" height="50" relative="1" as="geometry"><Array as="points"><mxPoint x="-975" y="491"/><mxPoint x="-860" y="491"/></Array></mxGeometry></mxCell><mxCell id="edge11" value="" style="html=1;rounded=1;edgeStyle=orthogonalEdgeStyle;dashed=0;startArrow=none;endArrow=block;endSize=12;strokeColor=#000082;exitX=0.500;exitY=0.001;exitDx=0;exitDy=0;entryX=0.500;entryY=1.000;entryDx=0;entryDy=0;fontSize=12;" parent="1" source="node10" target="node5" edge="1"><mxGeometry width="50" height="50" relative="1" as="geometry"><Array as="points"><mxPoint x="-746" y="331"/><mxPoint x="-635" y="331"/></Array></mxGeometry></mxCell><mxCell id="edge4" value="" style="html=1;rounded=1;edgeStyle=orthogonalEdgeStyle;dashed=1;startArrow=none;endArrow=openThin;endSize=12;strokeColor=#595959;exitX=0.402;exitY=0.001;exitDx=0;exitDy=0;entryX=0.500;entryY=1.000;entryDx=0;entryDy=0;fontSize=12;" parent="1" source="node10" target="node7" edge="1"><mxGeometry width="50" height="50" relative="1" as="geometry"><Array as="points"><mxPoint x="-761" y="350"/><mxPoint x="-954" y="350"/></Array></mxGeometry></mxCell><mxCell id="edge1" value="" style="html=1;rounded=1;edgeStyle=orthogonalEdgeStyle;dashed=1;startArrow=none;endArrow=block;endSize=12;strokeColor=#008200;exitX=0.500;exitY=1.000;exitDx=0;exitDy=0;entryX=0.598;entryY=0.001;entryDx=0;entryDy=0;fontSize=12;" parent="1" source="node10" target="node1" edge="1"><mxGeometry width="50" height="50" relative="1" as="geometry"><Array as="points"><mxPoint x="-746" y="491"/><mxPoint x="-860" y="491"/></Array></mxGeometry></mxCell><mxCell id="edge8" value="" style="html=1;rounded=1;edgeStyle=orthogonalEdgeStyle;dashed=1;startArrow=none;endArrow=openThin;endSize=12;strokeColor=#595959;exitX=0.500;exitY=0.001;exitDx=0;exitDy=0;entryX=0.500;entryY=1.000;entryDx=0;entryDy=0;fontSize=12;" parent="1" source="node1" target="node7" edge="1"><mxGeometry width="50" height="50" relative="1" as="geometry"><Array as="points"><mxPoint x="-875" y="350"/><mxPoint x="-954" y="350"/></Array></mxGeometry></mxCell></root></mxGraphModel></diagram></mxfile>